<svg class="main-svg" xmlns="http://www.w3.org/2000/svg" xmlns:xlink="http://www.w3.org/1999/xlink" width="400" height="250" style="" viewBox="0 0 400 250"><rect x="0" y="0" width="400" height="250" style="fill: rgb(255, 255, 255); fill-opacity: 1;"/><defs id="defs-fe817b"><g class="clips"><clipPath id="clipfe817bxyplot" class="plotclip"><rect width="350" height="173"/></clipPath><clipPath class="axesclip" id="clipfe817bx"><rect x="50" y="0" width="350" height="250"/></clipPath><clipPath class="axesclip" id="clipfe817by"><rect x="0" y="29" width="400" height="173"/></clipPath><clipPath class="axesclip" id="clipfe817bxy"><rect x="50" y="29" width="350" height="173"/></clipPath></g><g class="gradients"/><g class="patterns"/></defs><g class="bglayer"/><g class="layer-below"><g class="imagelayer"/><g class="shapelayer"/></g><g class="cartesianlayer"><g class="subplot xy"><g class="layer-subplot"><g class="shapelayer"/><g class="imagelayer"/></g><g class="gridlayer"><g class="x"/><g class="y"/></g><g class="zerolinelayer"/><path class="xlines-below"/><path class="ylines-below"/><g class="overlines-below"/><g class="xaxislayer-below"/><g class="yaxislayer-below"/><g class="overaxes-below"/><g class="plot" transform="translate(50,29)" clip-path="url(#clipfe817bxyplot)"><g class="scatterlayer mlayer"><g class="trace scatter trace396765" style="stroke-miterlimit: 2; opacity: 1;"><g class="fills"/><g class="errorbars"/><g class="lines"><path class="js-line" d="M0,36.57Q4.68,33.21 7.14,32.08C9.46,31.01 11.9,30.57 14.29,29.85C16.67,29.13 19.03,28.04 21.43,27.75C23.79,27.47 26.19,28.14 28.57,28.1C30.95,28.06 33.34,27.87 35.71,27.49C38.11,27.11 40.47,25.87 42.86,25.81C45.24,25.75 47.62,27.19 50,27.14C52.38,27.09 54.78,26.22 57.14,25.52C59.55,24.81 61.87,23.33 64.29,22.89C66.63,22.47 69.05,22.71 71.43,22.86C73.82,23.01 76.23,24.1 78.57,23.79C80.99,23.46 83.28,21.27 85.71,20.8C88.05,20.35 90.48,20.93 92.86,20.89C95.24,20.85 97.7,19.99 100,20.56C102.47,21.17 104.77,24.81 107.14,24.76C109.54,24.71 111.8,20.74 114.29,20.16C116.58,19.63 119.05,21.01 121.43,20.99C123.81,20.97 126.18,20.2 128.57,20.03C130.94,19.86 133.33,20.16 135.71,19.99C138.1,19.82 140.54,18.6 142.86,18.99C145.31,19.4 147.62,22.61 150,22.61C152.38,22.61 154.71,19.25 157.14,19.02C159.48,18.8 161.91,21.04 164.29,21.05C166.67,21.06 169.03,19.26 171.43,19.09C173.79,18.93 176.19,19.76 178.57,20.02C180.95,20.28 183.33,20.68 185.71,20.63C188.1,20.58 190.47,19.8 192.86,19.73C195.24,19.66 197.62,20.25 200,20.21C202.38,20.17 204.76,19.6 207.14,19.46C209.52,19.32 211.91,19.32 214.29,19.39C216.67,19.46 219.06,20.02 221.43,19.9C223.82,19.77 226.18,18.97 228.57,18.63C230.94,18.29 233.4,17.38 235.71,17.84C238.17,18.33 240.39,21.11 242.86,21.77C245.17,22.39 247.65,22.25 250,21.92C252.41,21.58 254.75,20.39 257.14,19.73C259.51,19.08 261.93,17.82 264.29,17.99C266.7,18.16 269.02,20.72 271.43,20.87C273.79,21.02 276.17,19.25 278.57,18.98C280.93,18.71 283.34,19.36 285.71,19.22C288.1,19.08 290.52,17.83 292.86,18.13C295.29,18.44 297.57,20.56 300,21.17C302.33,21.75 304.8,22.15 307.14,21.8C309.57,21.43 311.86,19.51 314.29,18.89C316.63,18.3 319.05,18.12 321.43,18.1C323.81,18.08 326.29,17.92 328.57,18.75C331.08,19.66 333.3,23.6 335.71,23.7C338.06,23.8 340.4,20.46 342.86,19.57Q345.17,18.74 350,18.35" style="vector-effect: non-scaling-stroke; fill: none; stroke: rgb(31, 119, 180); stroke-opacity: 1; stroke-width: 2px; opacity: 1;"/></g><g class="points"/><g class="text"/></g><g class="trace scatter trace97069e" style="stroke-miterlimit: 2; opacity: 1;"><g class="fills"/><g class="errorbars"/><g class="lines"><path class="js-line" d="M0,164.35Q4.74,162.74 7.14,162.33C9.5,161.92 11.93,162.31 14.29,161.87C16.7,161.42 19.39,161.51 21.43,159.65C24.65,156.71 25.6,146.44 28.57,142.46C30.66,139.66 33.4,136.52 35.71,136.67C38.17,136.83 40.28,143.68 42.86,144.21C45.09,144.67 47.6,142.01 50,141.13C52.36,140.27 54.8,139.9 57.14,138.95C59.57,137.97 61.89,135.37 64.29,135.28C66.65,135.19 69.09,138.42 71.43,138.26C73.85,138.1 76.2,134.07 78.57,134.09C80.96,134.11 83.23,137.81 85.71,138.46C88.01,139.06 90.58,138.93 92.86,138.19C95.36,137.39 97.53,133.86 100,133.46C102.3,133.09 104.87,134.23 107.14,135.38C109.66,136.66 111.98,141.26 114.29,141.1C116.75,140.93 118.78,134.78 121.43,133.59C123.63,132.6 126.2,133.18 128.57,133.33C130.96,133.48 133.39,133.72 135.71,134.49C138.16,135.3 140.51,138.33 142.86,138.22C145.27,138.11 147.51,134.33 150,133.63C152.29,132.99 154.77,133.55 157.14,133.79C159.53,134.04 162.21,136.11 164.29,135.11C167.29,133.67 168.76,125.43 171.43,121.85C173.61,118.93 176.02,116.5 178.57,114.78C180.82,113.27 183.49,113.32 185.71,111.73C188.32,109.86 190.18,104.99 192.86,103.76C195.05,102.76 197.7,103.02 200,103.6C202.47,104.22 204.69,107.34 207.14,107.67C209.46,107.98 211.95,106.69 214.29,105.85C216.71,104.98 218.99,103.02 221.43,102.51C223.75,102.03 226.45,101.52 228.57,102.7C231.43,104.3 233.17,113.44 235.71,113.68C237.97,113.89 240.3,108.06 242.86,106.21C245.1,104.6 247.58,103.09 250,102.84C252.34,102.6 254.89,103.39 257.14,104.56C259.7,105.89 261.86,110.75 264.29,110.87C266.63,110.98 269,107.22 271.43,105.71C273.76,104.26 276.13,102.85 278.57,101.94C280.9,101.07 283.34,100.22 285.71,100.29C288.1,100.36 290.5,102.51 292.86,102.41C295.26,102.31 297.65,99.47 300,99.6C302.41,99.73 304.77,102.05 307.14,103.33C309.53,104.62 312.01,107.63 314.29,107.33C316.8,107 318.82,101.47 321.43,100.39C323.64,99.48 326.22,99.94 328.57,100.32C330.98,100.71 333.3,102.56 335.71,102.77C338.07,102.98 340.47,101.99 342.86,101.65Q345.24,101.31 350,100.75" style="vector-effect: non-scaling-stroke; fill: none; stroke: rgb(255, 127, 14); stroke-opacity: 1; stroke-width: 2px; opacity: 1;"/></g><g class="points"/><g class="text"/></g><g class="trace scatter trace50f92e" style="stroke-miterlimit: 2; opacity: 1;"><g class="fills"/><g class="errorbars"/><g class="lines"><path class="js-line" d="M0,50.72Q4.86,57.62 7.14,57.43C9.64,57.22 11.66,50.41 14.29,48.07C16.5,46.1 19.08,43.72 21.43,43.8C23.84,43.89 26.22,47.02 28.57,48.8C30.98,50.63 33.34,54.65 35.71,54.62C38.11,54.59 40.37,50.13 42.86,48.47C45.15,46.95 47.75,46.53 50,44.9C52.54,43.06 55,40.81 57.14,37.69C59.95,33.59 61.43,25.61 64.29,21.68C66.41,18.77 68.85,16.13 71.43,15.26C73.66,14.51 76.44,14.63 78.57,15.86C81.38,17.48 83.3,26.01 85.71,26.05C88.07,26.09 90.21,18.81 92.86,16.49C95.06,14.57 97.64,12.46 100,12.52C102.4,12.58 104.83,15.22 107.14,16.95C109.61,18.8 112.04,23.63 114.29,23.37C116.85,23.08 118.62,14.8 121.43,13.18C123.56,11.95 126.2,12.89 128.57,12.55C130.96,12.2 133.32,11.15 135.71,11.1C138.09,11.05 140.51,12.45 142.86,12.22C145.27,11.98 147.67,9.4 150,9.61C152.43,9.83 155.03,11.57 157.14,13.78C160.02,16.79 161.91,27.4 164.29,27.4C166.67,27.4 168.89,13.86 171.43,13.68C173.69,13.52 176.25,23.72 178.57,23.63C181.02,23.54 182.89,14.42 185.71,11.92C187.84,10.03 190.65,8.16 192.86,8.65C195.48,9.23 197.38,16.51 200,17.08C202.21,17.56 204.7,14.37 207.14,13.71C209.47,13.08 211.96,13.71 214.29,13.11C216.72,12.49 219.32,9.24 221.43,9.94C224.31,10.89 226.18,22.6 228.57,22.61C230.94,22.62 232.89,11.05 235.71,10.27C237.84,9.68 240.4,13.74 242.86,14.21C245.17,14.65 247.63,13.67 250,13.28C252.39,12.89 254.85,11.43 257.14,11.89C259.63,12.39 261.79,15.75 264.29,16.65C266.57,17.48 269.16,18.01 271.43,17.41C273.94,16.75 276.43,11.81 278.57,12.29C281.34,12.91 283.3,25.12 285.71,25.15C288.07,25.18 289.93,14.35 292.86,12.98C294.96,12 297.63,14.23 300,14.17C302.39,14.11 304.78,13.27 307.14,12.59C309.54,11.9 312.09,9.46 314.29,10.04C316.93,10.74 319.09,18.44 321.43,18.37C323.86,18.29 326.11,9.04 328.57,8.91C330.88,8.79 333.17,16.23 335.71,16.59C337.97,16.91 340.39,12.77 342.86,12.32Q345.16,11.9 350,13.58" style="vector-effect: non-scaling-stroke; fill: none; stroke: rgb(44, 160, 44); stroke-opacity: 1; stroke-width: 2px; opacity: 1;"/></g><g class="points"/><g class="text"/></g></g></g><g class="overplot"/><path class="xlines-above crisp" d="M49,202.5H400" style="fill: none; stroke-width: 1px; stroke: rgb(36, 36, 36); stroke-opacity: 1;"/><path class="ylines-above crisp" d="M49.5,29V202" style="fill: none; stroke-width: 1px; stroke: rgb(36, 36, 36); stroke-opacity: 1;"/><g class="overlines-above"/><g class="xaxislayer-above"><path class="xtick ticks crisp" d="M0,203v5" transform="translate(50,0)" style="stroke: rgb(68, 68, 68); stroke-opacity: 1; stroke-width: 1px;"/><path class="xtick ticks crisp" d="M0,203v5" transform="translate(121.43,0)" style="stroke: rgb(68, 68, 68); stroke-opacity: 1; stroke-width: 1px;"/><path class="xtick ticks crisp" d="M0,203v5" transform="translate(192.86,0)" style="stroke: rgb(68, 68, 68); stroke-opacity: 1; stroke-width: 1px;"/><path class="xtick ticks crisp" d="M0,203v5" transform="translate(264.28999999999996,0)" style="stroke: rgb(68, 68, 68); stroke-opacity: 1; stroke-width: 1px;"/><path class="xtick ticks crisp" d="M0,203v5" transform="translate(335.71,0)" style="stroke: rgb(68, 68, 68); stroke-opacity: 1; stroke-width: 1px;"/><g class="xtick"><text text-anchor="middle" x="0" y="222.4" transform="translate(50,0)" style="font-family: 'Open Sans', verdana, arial, sans-serif; font-size: 12px; fill: rgb(36, 36, 36); fill-opacity: 1; white-space: pre; opacity: 1;">0</text></g><g class="xtick"><text text-anchor="middle" x="0" y="222.4" style="font-family: 'Open Sans', verdana, arial, sans-serif; font-size: 12px; fill: rgb(36, 36, 36); fill-opacity: 1; white-space: pre; opacity: 1;" transform="translate(121.43,0)">20</text></g><g class="xtick"><text text-anchor="middle" x="0" y="222.4" style="font-family: 'Open Sans', verdana, arial, sans-serif; font-size: 12px; fill: rgb(36, 36, 36); fill-opacity: 1; white-space: pre; opacity: 1;" transform="translate(192.86,0)">40</text></g><g class="xtick"><text text-anchor="middle" x="0" y="222.4" style="font-family: 'Open Sans', verdana, arial, sans-serif; font-size: 12px; fill: rgb(36, 36, 36); fill-opacity: 1; white-space: pre; opacity: 1;" transform="translate(264.28999999999996,0)">60</text></g><g class="xtick"><text text-anchor="middle" x="0" y="222.4" style="font-family: 'Open Sans', verdana, arial, sans-serif; font-size: 12px; fill: rgb(36, 36, 36); fill-opacity: 1; white-space: pre; opacity: 1;" transform="translate(335.71,0)">80</text></g></g><g class="yaxislayer-above"><path class="ytick ticks crisp" d="M49,0h-5" transform="translate(0,183.06)" style="stroke: rgb(68, 68, 68); stroke-opacity: 1; stroke-width: 1px;"/><path class="ytick ticks crisp" d="M49,0h-5" transform="translate(0,149.99)" style="stroke: rgb(68, 68, 68); stroke-opacity: 1; stroke-width: 1px;"/><path class="ytick ticks crisp" d="M49,0h-5" transform="translate(0,116.92)" style="stroke: rgb(68, 68, 68); stroke-opacity: 1; stroke-width: 1px;"/><path class="ytick ticks crisp" d="M49,0h-5" transform="translate(0,83.85)" style="stroke: rgb(68, 68, 68); stroke-opacity: 1; stroke-width: 1px;"/><path class="ytick ticks crisp" d="M49,0h-5" transform="translate(0,50.78)" style="stroke: rgb(68, 68, 68); stroke-opacity: 1; stroke-width: 1px;"/><g class="ytick"><text text-anchor="end" x="41.6" y="4.199999999999999" transform="translate(0,183.06)" style="font-family: 'Open Sans', verdana, arial, sans-serif; font-size: 12px; fill: rgb(36, 36, 36); fill-opacity: 1; white-space: pre; opacity: 1;">0.5</text></g><g class="ytick"><text text-anchor="end" x="41.6" y="4.199999999999999" style="font-family: 'Open Sans', verdana, arial, sans-serif; font-size: 12px; fill: rgb(36, 36, 36); fill-opacity: 1; white-space: pre; opacity: 1;" transform="translate(0,149.99)">0.6</text></g><g class="ytick"><text text-anchor="end" x="41.6" y="4.199999999999999" style="font-family: 'Open Sans', verdana, arial, sans-serif; font-size: 12px; fill: rgb(36, 36, 36); fill-opacity: 1; white-space: pre; opacity: 1;" transform="translate(0,116.92)">0.7</text></g><g class="ytick"><text text-anchor="end" x="41.6" y="4.199999999999999" style="font-family: 'Open Sans', verdana, arial, sans-serif; font-size: 12px; fill: rgb(36, 36, 36); fill-opacity: 1; white-space: pre; opacity: 1;" transform="translate(0,83.85)">0.8</text></g><g class="ytick"><text text-anchor="end" x="41.6" y="4.199999999999999" style="font-family: 'Open Sans', verdana, arial, sans-serif; font-size: 12px; fill: rgb(36, 36, 36); fill-opacity: 1; white-space: pre; opacity: 1;" transform="translate(0,50.78)">0.9</text></g></g><g class="overaxes-above"/></g></g><g class="polarlayer"/><g class="smithlayer"/><g class="ternarylayer"/><g class="geolayer"/><g class="funnelarealayer"/><g class="pielayer"/><g class="iciclelayer"/><g class="treemaplayer"/><g class="sunburstlayer"/><g class="glimages"/><defs id="topdefs-fe817b"><g class="clips"/><clipPath id="legendfe817b"><rect width="534" height="29" x="0" y="0"/></clipPath></defs><g class="layer-above"><g class="imagelayer"/><g class="shapelayer"/></g><g class="infolayer"><g class="legend" pointer-events="all" transform="translate(-134,0)"><rect class="bg" shape-rendering="crispEdges" style="stroke: rgb(68, 68, 68); stroke-opacity: 1; fill: rgb(255, 255, 255); fill-opacity: 1; stroke-width: 0px;" width="534" height="29" x="0" y="0"/><g class="scrollbox" transform="" clip-path="url(#legendfe817b)"><text class="legendtitletext" text-anchor="start" x="2" y="18.2" style="font-family: 'Open Sans', verdana, arial, sans-serif; font-size: 14px; fill: rgb(36, 36, 36); fill-opacity: 1; white-space: pre;">Baseline Clean Mnist Test Accuracy</text><g class="groups" transform=""><g class="traces" transform="translate(232.546875,14.5)" style="opacity: 1;"><text class="legendtext" text-anchor="start" x="40" y="4.680000000000001" style="font-family: 'Open Sans', verdana, arial, sans-serif; font-size: 12px; fill: rgb(36, 36, 36); fill-opacity: 1; white-space: pre;">Ensemble</text><g class="layers" style="opacity: 1;"><g class="legendfill"/><g class="legendlines"><path class="js-line" d="M5,0h30" style="fill: none; stroke: rgb(31, 119, 180); stroke-opacity: 1; stroke-width: 2px;"/></g><g class="legendsymbols"><g class="legendpoints"/></g></g><rect class="legendtoggle" x="0" y="-9.5" width="96.1875" height="19" style="fill: rgb(0, 0, 0); fill-opacity: 0;"/></g></g><g class="groups" transform="translate(98.6875,0)"><g class="traces" transform="translate(232.546875,14.5)" style="opacity: 1;"><text class="legendtext" text-anchor="start" x="40" y="4.680000000000001" style="font-family: 'Open Sans', verdana, arial, sans-serif; font-size: 12px; fill: rgb(36, 36, 36); fill-opacity: 1; white-space: pre;">Dropout</text><g class="layers" style="opacity: 1;"><g class="legendfill"/><g class="legendlines"><path class="js-line" d="M5,0h30" style="fill: none; stroke: rgb(255, 127, 14); stroke-opacity: 1; stroke-width: 2px;"/></g><g class="legendsymbols"><g class="legendpoints"/></g></g><rect class="legendtoggle" x="0" y="-9.5" width="85.859375" height="19" style="fill: rgb(0, 0, 0); fill-opacity: 0;"/></g></g><g class="groups" transform="translate(187.046875,0)"><g class="traces" transform="translate(232.546875,14.5)" style="opacity: 1;"><text class="legendtext" text-anchor="start" x="40" y="4.680000000000001" style="font-family: 'Open Sans', verdana, arial, sans-serif; font-size: 12px; fill: rgb(36, 36, 36); fill-opacity: 1; white-space: pre;">Deterministic</text><g class="layers" style="opacity: 1;"><g class="legendfill"/><g class="legendlines"><path class="js-line" d="M5,0h30" style="fill: none; stroke: rgb(44, 160, 44); stroke-opacity: 1; stroke-width: 2px;"/></g><g class="legendsymbols"><g class="legendpoints"/></g></g><rect class="legendtoggle" x="0" y="-9.5" width="111.859375" height="19" style="fill: rgb(0, 0, 0); fill-opacity: 0;"/></g></g></g><rect class="scrollbar" rx="20" ry="3" width="0" height="0" style="fill: rgb(128, 139, 164); fill-opacity: 1;" x="0" y="0"/></g><g class="g-gtitle"/><g class="g-xtitle" transform="translate(0,-3.2062500000000114)"><text class="xtitle" x="225" y="250.20625" text-anchor="middle" style="font-family: 'Open Sans', verdana, arial, sans-serif; font-size: 14px; fill: rgb(36, 36, 36); opacity: 1; font-weight: normal; white-space: pre;">Epochs</text></g><g class="g-ytitle" transform="translate(12.8935546875,0)"><text class="ytitle" transform="rotate(-90,0.10625000000000284,115.5)" x="0.10625000000000284" y="115.5" text-anchor="middle" style="font-family: 'Open Sans', verdana, arial, sans-serif; font-size: 14px; fill: rgb(36, 36, 36); opacity: 1; font-weight: normal; white-space: pre;">Test Accuracy</text></g></g></svg>