<svg class="main-svg" xmlns="http://www.w3.org/2000/svg" xmlns:xlink="http://www.w3.org/1999/xlink" width="400" height="250" style="" viewBox="0 0 400 250"><rect x="0" y="0" width="400" height="250" style="fill: rgb(255, 255, 255); fill-opacity: 1;"/><defs id="defs-2139b1"><g class="clips"><clipPath id="clip2139b1xyplot" class="plotclip"><rect width="343" height="173"/></clipPath><clipPath class="axesclip" id="clip2139b1x"><rect x="57" y="0" width="343" height="250"/></clipPath><clipPath class="axesclip" id="clip2139b1y"><rect x="0" y="29" width="400" height="173"/></clipPath><clipPath class="axesclip" id="clip2139b1xy"><rect x="57" y="29" width="343" height="173"/></clipPath></g><g class="gradients"/><g class="patterns"/></defs><g class="bglayer"/><g class="layer-below"><g class="imagelayer"/><g class="shapelayer"/></g><g class="cartesianlayer"><g class="subplot xy"><g class="layer-subplot"><g class="shapelayer"/><g class="imagelayer"/></g><g class="gridlayer"><g class="x"/><g class="y"/></g><g class="zerolinelayer"/><path class="xlines-below"/><path class="ylines-below"/><g class="overlines-below"/><g class="xaxislayer-below"/><g class="yaxislayer-below"/><g class="overaxes-below"/><g class="plot" transform="translate(57,29)" clip-path="url(#clip2139b1xyplot)"><g class="scatterlayer mlayer"><g class="trace scatter trace76891c" style="stroke-miterlimit: 2; opacity: 1;"><g class="fills"/><g class="errorbars"/><g class="lines"><path class="js-line" d="M0,40.51Q4.05,27.41 7,23.63C9.04,21.02 11.67,20.18 14,18.44C16.33,16.7 18.79,12.94 21,13.21C23.49,13.52 25.5,21.45 28,21.78C30.21,22.07 32.54,17.35 35,16.71C37.23,16.13 39.84,16.47 42,17.54C44.58,18.82 46.64,24.72 49,24.78C51.31,24.84 53.46,19.39 56,18.22C58.18,17.22 60.66,17.6 63,17.46C65.33,17.32 67.96,16.18 70,17.37C72.94,19.08 74.71,30.12 77,30.07C79.38,30.02 81.29,16.56 84,16.06C86.11,15.67 88.47,21.2 91,22.44C93.19,23.51 95.87,24.44 98,23.66C100.64,22.7 102.48,17.49 105,15.33C107.19,13.45 109.88,10.59 112,11.08C114.67,11.7 116.61,22.01 119,22.09C121.28,22.17 123.39,13.13 126,12.54C128.14,12.06 130.65,15.13 133,16.33C135.32,17.52 137.72,19.88 140,19.7C142.39,19.51 144.62,15 147,14.86C149.29,14.73 151.62,17.61 154,18.59C156.29,19.53 158.7,20.86 161,20.66C163.37,20.46 165.61,17.98 168,17.21C170.28,16.48 172.66,16.41 175,16.07C177.33,15.73 179.67,15.16 182,15.19C184.34,15.22 186.66,15.94 189,16.25C191.33,16.55 193.82,16.03 196,17.02C198.53,18.16 200.58,23.18 203,23.4C205.26,23.6 207.59,19.32 210,19C212.27,18.7 214.71,20.2 217,21.16C219.38,22.16 221.88,25.48 224,24.94C226.68,24.26 228.2,15.78 231,14.25C233.08,13.12 235.97,12.98 238,14.2C240.99,16 242.65,27.64 245,27.66C247.31,27.68 249.05,16.71 252,14.74C254.04,13.38 256.84,13.23 259,14.01C261.58,14.93 263.42,20.2 266,21.12C268.16,21.89 270.67,20.41 273,20.38C275.33,20.35 277.82,21.71 280,20.96C282.54,20.09 284.46,15.51 287,14.52C289.18,13.67 291.83,13.66 294,14.54C296.56,15.58 298.69,21.38 301,21.33C303.36,21.27 305.86,13.56 308,13.86C310.62,14.23 312.8,27.66 315,27.53C317.51,27.38 318.97,9.49 322,8.65C324.02,8.09 326.65,12.44 329,14.26C331.32,16.05 333.59,19.24 336,19.48Q338.27,19.71 343,16.19" style="vector-effect: non-scaling-stroke; fill: none; stroke: rgb(31, 119, 180); stroke-opacity: 1; stroke-width: 2px; opacity: 1;"/></g><g class="points"/><g class="text"/></g><g class="trace scatter trace875eb4" style="stroke-miterlimit: 2; opacity: 1;"><g class="fills"/><g class="errorbars"/><g class="lines"><path class="js-line" d="M0,93.7Q4.15,76.82 7,76.23C9.06,75.8 11.89,83.52 14,83.15C16.7,82.68 18.61,73.26 21,68.58C23.28,64.13 25.79,55.59 28,55.71C30.48,55.84 32.77,72.84 35,72.76C37.46,72.67 38.68,52.73 42,51.42C43.98,50.64 47.06,52.62 49,55.25C53.08,60.79 52.84,89.4 56,89.91C58,90.23 60.31,80.65 63,77.63C65.11,75.26 67.77,74.53 70,72.49C72.46,70.24 75.02,64.06 77,64.56C80.37,65.41 81.45,94.44 84,94.55C86.18,94.65 88.45,79.65 91,73.26C93.18,67.79 95.7,58.39 98,58.42C100.37,58.45 102.37,69.95 105,74.42C107.14,78.06 110.06,78.61 112,83.62C117.12,96.89 116.77,164.37 119,164.35C121.46,164.33 118.81,74.9 126,65.37C127.97,62.76 130.97,64.65 133,62.82C135.98,60.14 137.94,48.25 140,48.48C142.85,48.8 144.88,78.14 147,78.05C149.67,77.93 151.21,30.65 154,30.48C156.08,30.36 158.31,48.91 161,56.25C163.11,62.03 165.7,71.28 168,71.25C170.37,71.22 171.9,57.98 175,55.17C177.01,53.35 179.66,53.62 182,52.93C184.32,52.25 186.91,52.57 189,51.07C191.76,49.09 193.64,43.95 196,40.52C198.31,37.17 200.97,30.35 203,30.71C206,31.24 206.99,49.86 210,56.14C212.03,60.37 215.01,66.25 217,65.84C220.28,65.16 221.94,33.76 224,33.87C226.85,34.02 228.55,95.64 231,95.67C233.23,95.7 233.23,52.31 238,44.62C239.93,41.51 242.55,40.81 245,39.87C247.24,39.01 250.07,37.51 252,38.9C256.47,42.12 254.97,69.58 259,76.08C260.94,79.21 264,81.99 266,81.37C269.18,80.38 269.74,64.42 273,60.27C274.99,57.75 277.97,58.27 280,55.91C282.97,52.46 284.1,40.51 287,39.75C289.05,39.21 292.07,41.82 294,45.08C298.45,52.59 298.66,91.19 301,91.19C303.33,91.19 305.17,45.78 308,45.59C310.07,45.45 311.37,65.88 315,69.16C316.96,70.93 320.07,71.79 322,70.48C326.39,67.5 325.7,34.99 329,34.38C330.98,34.02 333.89,41.19 336,45.66Q338.71,51.41 343,66.46" style="vector-effect: non-scaling-stroke; fill: none; stroke: rgb(255, 127, 14); stroke-opacity: 1; stroke-width: 2px; opacity: 1;"/></g><g class="points"/><g class="text"/></g><g class="trace scatter trace286427" style="stroke-miterlimit: 2; opacity: 1;"><g class="fills"/><g class="errorbars"/><g class="lines"><path class="js-line" d="M0,121.64Q3.71,83.65 7,71.48C8.99,64.13 11.35,54.72 14,54.4C16.13,54.14 18.96,64.37 21,64.02C23.92,63.52 25.53,40.81 28,40.72C30.22,40.64 32.88,59.23 35,59.08C37.68,58.89 39.22,28.73 42,28.47C44.08,28.28 46.03,41.14 49,44.58C51.03,46.94 54.02,46.4 56,48.95C59.31,53.2 59.47,67.78 63,70.78C64.96,72.45 68.06,73.17 70,71.83C74.19,68.94 72.83,43.61 77,39.44C78.94,37.5 82.06,36.67 84,37.93C88.24,40.69 87.58,70.77 91,71.56C92.97,72.02 95.93,66.37 98,62.55C100.83,57.32 103.06,42.01 105,42.26C109.01,42.78 109.64,133.55 112,133.55C114.31,133.55 115.1,64.6 119,45.59C120.94,36.13 123.59,24.93 126,24.87C128.26,24.82 130,41.89 133,42.73C135.03,43.3 138.04,36.69 140,37.39C143.61,38.67 144.33,66.34 147,66.53C149.12,66.68 151.14,49.6 154,48.99C156.06,48.55 158.72,53.37 161,55.79C163.39,58.33 165.86,60.63 168,63.91C170.64,67.96 173,78.95 175,78.67C178.2,78.23 179.3,37.35 182,37.2C184.11,37.09 185.97,61.36 189,61.94C191.02,62.33 193.9,52.54 196,52.85C198.74,53.25 200.8,71.22 203,71.13C205.5,71.02 206.92,52.57 210,46.82C212.01,43.06 214.94,38.18 217,38.55C219.86,39.07 221.51,58.07 224,58.19C226.21,58.3 228.51,43.52 231,43.35C233.21,43.2 235.73,54.21 238,54.13C240.41,54.04 242.36,41.85 245,41.41C247.13,41.06 249.93,48.24 252,47.79C254.83,47.18 256.07,32.29 259,31.48C261.04,30.92 263.9,37.01 266,36.54C268.72,35.93 270.5,24.12 273,23.9C275.2,23.71 278.06,28.06 280,32.6C284.28,42.65 284.7,86.83 287,86.82C289.37,86.81 291.65,28.98 294,28.97C296.31,28.96 298.31,84.63 301,84.74C303.11,84.82 304.52,58.12 308,50.8C309.97,46.66 312.91,41.89 315,42.22C317.75,42.65 319.26,59.54 322,59.96C324.09,60.28 326.7,51.29 329,51.34C331.37,51.39 333.31,58.93 336,60.77Q338.11,62.22 343,62.71" style="vector-effect: non-scaling-stroke; fill: none; stroke: rgb(44, 160, 44); stroke-opacity: 1; stroke-width: 2px; opacity: 1;"/></g><g class="points"/><g class="text"/></g></g></g><g class="overplot"/><path class="xlines-above crisp" d="M56,202.5H400" style="fill: none; stroke-width: 1px; stroke: rgb(36, 36, 36); stroke-opacity: 1;"/><path class="ylines-above crisp" d="M56.5,29V202" style="fill: none; stroke-width: 1px; stroke: rgb(36, 36, 36); stroke-opacity: 1;"/><g class="overlines-above"/><g class="xaxislayer-above"><path class="xtick ticks crisp" d="M0,203v5" transform="translate(57,0)" style="stroke: rgb(68, 68, 68); stroke-opacity: 1; stroke-width: 1px;"/><path class="xtick ticks crisp" d="M0,203v5" transform="translate(127,0)" style="stroke: rgb(68, 68, 68); stroke-opacity: 1; stroke-width: 1px;"/><path class="xtick ticks crisp" d="M0,203v5" transform="translate(197,0)" style="stroke: rgb(68, 68, 68); stroke-opacity: 1; stroke-width: 1px;"/><path class="xtick ticks crisp" d="M0,203v5" transform="translate(267,0)" style="stroke: rgb(68, 68, 68); stroke-opacity: 1; stroke-width: 1px;"/><path class="xtick ticks crisp" d="M0,203v5" transform="translate(337,0)" style="stroke: rgb(68, 68, 68); stroke-opacity: 1; stroke-width: 1px;"/><g class="xtick"><text text-anchor="middle" x="0" y="222.4" transform="translate(57,0)" style="font-family: 'Open Sans', verdana, arial, sans-serif; font-size: 12px; fill: rgb(36, 36, 36); fill-opacity: 1; white-space: pre; opacity: 1;">0</text></g><g class="xtick"><text text-anchor="middle" x="0" y="222.4" style="font-family: 'Open Sans', verdana, arial, sans-serif; font-size: 12px; fill: rgb(36, 36, 36); fill-opacity: 1; white-space: pre; opacity: 1;" transform="translate(127,0)">20</text></g><g class="xtick"><text text-anchor="middle" x="0" y="222.4" style="font-family: 'Open Sans', verdana, arial, sans-serif; font-size: 12px; fill: rgb(36, 36, 36); fill-opacity: 1; white-space: pre; opacity: 1;" transform="translate(197,0)">40</text></g><g class="xtick"><text text-anchor="middle" x="0" y="222.4" style="font-family: 'Open Sans', verdana, arial, sans-serif; font-size: 12px; fill: rgb(36, 36, 36); fill-opacity: 1; white-space: pre; opacity: 1;" transform="translate(267,0)">60</text></g><g class="xtick"><text text-anchor="middle" x="0" y="222.4" style="font-family: 'Open Sans', verdana, arial, sans-serif; font-size: 12px; fill: rgb(36, 36, 36); fill-opacity: 1; white-space: pre; opacity: 1;" transform="translate(337,0)">80</text></g></g><g class="yaxislayer-above"><path class="ytick ticks crisp" d="M56,0h-5" transform="translate(0,177.93)" style="stroke: rgb(68, 68, 68); stroke-opacity: 1; stroke-width: 1px;"/><path class="ytick ticks crisp" d="M56,0h-5" transform="translate(0,123.82)" style="stroke: rgb(68, 68, 68); stroke-opacity: 1; stroke-width: 1px;"/><path class="ytick ticks crisp" d="M56,0h-5" transform="translate(0,69.72)" style="stroke: rgb(68, 68, 68); stroke-opacity: 1; stroke-width: 1px;"/><g class="ytick"><text text-anchor="end" x="48.6" y="4.199999999999999" transform="translate(0,177.93)" style="font-family: 'Open Sans', verdana, arial, sans-serif; font-size: 12px; fill: rgb(36, 36, 36); fill-opacity: 1; white-space: pre; opacity: 1;">0.76</text></g><g class="ytick"><text text-anchor="end" x="48.6" y="4.199999999999999" style="font-family: 'Open Sans', verdana, arial, sans-serif; font-size: 12px; fill: rgb(36, 36, 36); fill-opacity: 1; white-space: pre; opacity: 1;" transform="translate(0,123.82)">0.78</text></g><g class="ytick"><text text-anchor="end" x="48.6" y="4.199999999999999" style="font-family: 'Open Sans', verdana, arial, sans-serif; font-size: 12px; fill: rgb(36, 36, 36); fill-opacity: 1; white-space: pre; opacity: 1;" transform="translate(0,69.72)">0.8</text></g></g><g class="overaxes-above"/></g></g><g class="polarlayer"/><g class="smithlayer"/><g class="ternarylayer"/><g class="geolayer"/><g class="funnelarealayer"/><g class="pielayer"/><g class="iciclelayer"/><g class="treemaplayer"/><g class="sunburstlayer"/><g class="glimages"/><defs id="topdefs-2139b1"><g class="clips"/><clipPath id="legend2139b1"><rect width="527" height="29" x="0" y="0"/></clipPath></defs><g class="layer-above"><g class="imagelayer"/><g class="shapelayer"/></g><g class="infolayer"><g class="legend" pointer-events="all" transform="translate(-127,0)"><rect class="bg" shape-rendering="crispEdges" style="stroke: rgb(68, 68, 68); stroke-opacity: 1; fill: rgb(255, 255, 255); fill-opacity: 1; stroke-width: 0px;" width="527" height="29" x="0" y="0"/><g class="scrollbox" transform="" clip-path="url(#legend2139b1)"><text class="legendtitletext" text-anchor="start" x="2" y="18.2" style="font-family: 'Open Sans', verdana, arial, sans-serif; font-size: 14px; fill: rgb(36, 36, 36); fill-opacity: 1; white-space: pre;">Baseline Dirty Mnist Test Accuracy</text><g class="groups" transform=""><g class="traces" transform="translate(224.734375,14.5)" style="opacity: 1;"><text class="legendtext" text-anchor="start" x="40" y="4.680000000000001" style="font-family: 'Open Sans', verdana, arial, sans-serif; font-size: 12px; fill: rgb(36, 36, 36); fill-opacity: 1; white-space: pre;">Ensemble</text><g class="layers" style="opacity: 1;"><g class="legendfill"/><g class="legendlines"><path class="js-line" d="M5,0h30" style="fill: none; stroke: rgb(31, 119, 180); stroke-opacity: 1; stroke-width: 2px;"/></g><g class="legendsymbols"><g class="legendpoints"/></g></g><rect class="legendtoggle" x="0" y="-9.5" width="96.1875" height="19" style="fill: rgb(0, 0, 0); fill-opacity: 0;"/></g></g><g class="groups" transform="translate(98.6875,0)"><g class="traces" transform="translate(224.734375,14.5)" style="opacity: 1;"><text class="legendtext" text-anchor="start" x="40" y="4.680000000000001" style="font-family: 'Open Sans', verdana, arial, sans-serif; font-size: 12px; fill: rgb(36, 36, 36); fill-opacity: 1; white-space: pre;">Dropout</text><g class="layers" style="opacity: 1;"><g class="legendfill"/><g class="legendlines"><path class="js-line" d="M5,0h30" style="fill: none; stroke: rgb(255, 127, 14); stroke-opacity: 1; stroke-width: 2px;"/></g><g class="legendsymbols"><g class="legendpoints"/></g></g><rect class="legendtoggle" x="0" y="-9.5" width="85.859375" height="19" style="fill: rgb(0, 0, 0); fill-opacity: 0;"/></g></g><g class="groups" transform="translate(187.046875,0)"><g class="traces" transform="translate(224.734375,14.5)" style="opacity: 1;"><text class="legendtext" text-anchor="start" x="40" y="4.680000000000001" style="font-family: 'Open Sans', verdana, arial, sans-serif; font-size: 12px; fill: rgb(36, 36, 36); fill-opacity: 1; white-space: pre;">Deterministic</text><g class="layers" style="opacity: 1;"><g class="legendfill"/><g class="legendlines"><path class="js-line" d="M5,0h30" style="fill: none; stroke: rgb(44, 160, 44); stroke-opacity: 1; stroke-width: 2px;"/></g><g class="legendsymbols"><g class="legendpoints"/></g></g><rect class="legendtoggle" x="0" y="-9.5" width="111.859375" height="19" style="fill: rgb(0, 0, 0); fill-opacity: 0;"/></g></g></g><rect class="scrollbar" rx="20" ry="3" width="0" height="0" x="0" y="0" style="fill: rgb(128, 139, 164); fill-opacity: 1;"/></g><g class="g-gtitle"/><g class="g-xtitle" transform="translate(0,-3.2062500000000114)"><text class="xtitle" x="228.5" y="250.20625" text-anchor="middle" style="font-family: 'Open Sans', verdana, arial, sans-serif; font-size: 14px; fill: rgb(36, 36, 36); opacity: 1; font-weight: normal; white-space: pre;">Epochs</text></g><g class="g-ytitle" transform="translate(12.5654296875,0)"><text class="ytitle" transform="rotate(-90,0.43437500000000284,115.5)" x="0.43437500000000284" y="115.5" text-anchor="middle" style="font-family: 'Open Sans', verdana, arial, sans-serif; font-size: 14px; fill: rgb(36, 36, 36); opacity: 1; font-weight: normal; white-space: pre;">Test Accuracy</text></g></g></svg>